<svg xmlns="http://www.w3.org/2000/svg" xmlns:xlink="http://www.w3.org/1999/xlink" viewBox="0 0 1166.5 703">
  <g id="laces" class="interactive_group" style="isolation: isolate" fill="transparent">
    <path d="M666,210c.38,7,4.1,14.57,6.5,20,.17,1.67.33,3.33.5,5,.29.84,1.68,2.16,2,3l1.5,9c.9,2.51,2.8,5.41,3.5,8v6c1.57,5.39,4.52,12.25,6,17.5,1.42,5.05-2.36,9.35-3.5,12.5-.33,2-.67,4-1,6-1,1.67-3.17,2.64-4.5,4-13.86.06-17-11.16-23.5-18.5-2-2.19-5.29-3.06-6-6.5.36-.59-.06-8.56,0-11-2.8-1.78-5.11-3.65-9.5-4-7.11,7.25-11.89,1.2-21,4.5-7.45,2.7-12.73,10.37-18,15.5,0,5.13,2,7.58,3.5,11,1.06,2.42,1.44,5.54,2,8-.17,1.67-.33,3.33-.5,5,.54,2.34,4.12,4.28,5,6.5V322c-1.81,2.54-1.77,6.26-3.5,9-1,1.66-3.14,2.62-4.5,4-2.86.05-6.89,1-8,.5-2.49-.95-12.64-14.13-14.5-17-1.52-2.35-1.75-5.86-4.5-7-3.74-2-8,10.47-14.5,11a8.3,8.3,0,0,0-6-3,12.48,12.48,0,0,1-2,2.5c.09,3.28,1.76,6.43,1.5,9-.6,6-2.37,13.25-2.5,20.5,1.47,1.13,11,11.55,11.5,13-1.68,2.28.09,7.94-1.5,10.5-.84,2.86-4,7.18-7.5,7.5a7.22,7.22,0,0,1-4,1c-2-2.2-5.25-4.15-7-6.5-1.22-1.65-1.17-4-2.5-5.5h-1c-2.12-2.23-3.83-4.82-6-7-.8-.8-2.26-1.16-3-2a74.3,74.3,0,0,1-4.5-7c-.6-1.64.27-3.26-.5-4.5l-3.5-3c-2.43.66-4.66,3.09-8.5,2-1.7-.48-3-2.47-4.5-3-4.63-1.63-11.48-1-16.5-.5-1.42,1.84-3.76,2.95-4.5,5.5-1.83,6.34,1.07,13.94,2,18-.17,2-.33,4-.5,6,.95,2.87,7.29,6.55,4,12-.85,2.66-2.8,3.28-4.5,5-5,.05-7.66-1.13-12-1.5-2.82-4.31-10.59-9.87-12.5-14.5-1.45-3.51,1-5.08-2.5-6.5a4.18,4.18,0,0,0-4,0c-3.37,1.09-4.75,4.28-7,6.5.13,6.16-1.79,10.76-3,15v18c-.38,1.15-2,2.54-2.5,3.5-1.46,2.6-1.81,4.61-5.5,5-2.51,1.71-7.47-.65-9.5-1.5-2.47-4.41-6.13-9.22-8-14-.33-1.5-.67-3-1-4.5L415,394c-4.08-.05-5.31,1.3-8,2-3.07.8-7.72-1-10,.5-2.24.64-3.3,1.75-3.5,4.5a14.38,14.38,0,0,1,5,10c-1.47,2.16-1.38,4.35-2.5,7-.87,2.07-3.14,2.95-4.5,4.5-2.42,2.74-1.69,6.49-6.5,7-2.13,1.9-6.21,1.37-9,0-1.17-.57-14.52-15.3-15-16.5-.81-2,.41-5-.5-6.5-2-1.79-4.36-5.14-7.5-5.5-1.23,1.1-4.81,2.54-6,2-2.5-.39-2.57-1.13-2.5-4,.4-.51.18-.14.5-1,2.36-.59,3.22-2.36,5-3,3.81-1.38,5.76,0,8.5-2.5s4.13-7,7.5-9c2.41-1.44,5.46-1.28,7.5-3,.82-.69,1.55-2.5,2.5-3,4.25-2.23,12.32-1,16.5-3,2.38-1.12,5-3.55,7.5-4.5,4.19-1.6,8.49-.84,13-2.5,3.67-1.35,7.76-4.42,11-6l5-.5c4.7-1.46,10.49-4.53,15-6h5c1.12-.38,2.12-2.05,3-2.5,1.51-.76,2.72-.19,4-1,1.87-1.18,2.88-3.57,4.5-5,2-1.77,5.1-2.15,7-4,2.6-2.54,5-7.07,8.5-8.5,3.06-1.24,6.37.17,10-1,.84-.27,2.17-1.69,3-2,3.5-1.31,9.6-1.16,13-2h9c.49-.14,1.72-1.39,2-1.5h4l1.5-2.5c3.26-2.58,7.31-5.45,10-8.5,1.45-1.64,1.55-4.36,3-6,1-1.2,2.86-1.86,4-3,1.81-1.81,3.11-4.27,5-6,1-.93,8.85-7.27,9.5-7.5,4-1.42,8.36-.37,12-2,2.91-1.3,6.33-3.52,9-5,.22,2.9,1.49,3.48,4.5,3.5,2.36-1.78,4.2-1.48,4.5-5.5a36.67,36.67,0,0,1-3-4.5c4.61-3,7-7.37,9.5-12.5.49-1,.42-2.64,1-3.5,2.24,1.25,3.27-1.23,4.5-2.5a22.08,22.08,0,0,1-.5-4.5l4-3.5H610c3.77-1,9.15-5.14,16-3,3.62,1.13,7.29,5,11,6,5.44,1.49,6.51-2,6.5-6.5-2-3.3-.44-8.36-1.5-12.5-1.2-4.67-5-9.95-5.5-15,2-2.17,3-5.3,5-7.5,1.77-1.94,4.55-3.25,6-5.5,2-3.11,2.21-6.59,4-10,.72-1.37,2.91-2.4,4-3.5,2.8-2.82,5.07-6.32,8-9,2.1-1.92,5.11-2.89,7-5A24.19,24.19,0,0,0,674,177c.54-1.52-.18-2.84.5-4l3-3c1.84-2.94,1.51-6.65,3-10s4.4-6.45,6-9.5c1.76-3.36,3.56-9.54,6-12,3-3,8.9-5.25,12-8,2.87-2.55,2.92-7.65,8-8,3.92,5.56,12.38,5.46,19.5,8,10.75,3.84,23.89,11.4,25,24.5-1.5,1.6-2,5.48-4,6.5l-6,.5c-1.51.39-3.49,1.63-5,2-4.18,1-7.71-.88-11-1-6.19-.23-10.12-.48-15-2-1.53-.48-3.73-2.73-6-2-.91.29-1.07,1.05-1.5,2-.78,1.2-2,16-2,16,2.55,7.23,8.12,3.74,14.5,6.5,4.61,2,17.87,11.1,18.5,16.5,2.16,3.21-2.54,10.24-4.5,11.5-3.49,2.49-23.8,6.07-29,5-.43-.09-2.37-1.35-3-1.5-3.32-.81-5.32,1.79-8,1-1.61-.47-2.37-2.53-3.5-3.5-1.48-1.28-5.48-2-7.5-2.5Z" fill-rule="evenodd"/>
  </g>
  <g id="bottom_front" class="interactive_group" style="isolation: isolate" fill="transparent">
    <path d="M87,465v-2.5l1.5-1.5c1.52-.69,3.28.21,4.5-.5s2.42-2.94,4-3.5h5c2.81-.64,6.5-1.41,9-2l25-1c5.4-1.35,12.59-2.66,18-4h7c3.93-1,8.89-2.95,13-4s7.62.29,12-1c2.05-.6,4.19-2.71,6-3.5l6-.5c1.86-.49,4.32-1.9,6-2.5l7-1c5.29-1.88,12.12-2.48,18-4.5,4.37-1.5,10.48-3.85,15-5h8c2.05-.61,4-2.76,6-3.5l5-.5a132.11,132.11,0,0,0,14-4.5l8-.5c1.37-.48,2.65-2.46,4-3l9-1.5c7-2.48,15.45-5.56,22-8l6-.5c4.88-1.61,9.78-4.8,16-5,.17.5.33,1,.5,1.5a4.29,4.29,0,0,1,.5,2.5c-2.54,2.41-7.86,8.63-9,12-1.9,5.6,1,13.16,2.5,16,3.38,6.52,8.38,9.45,13,14.5,2.12,2.32,3.15,5.42,5,8,1,1.37,3.26,3,4,4.5,4.22,8.74-4.13,16.69-1.5,26,.33,1.18,1.66,2.68,2,4v21.5c0,2.77.64,7.64-.5,9.5-1.69,5.36-9.26,10.24-15.5,9.5-1.38.71-3.61,2.08-6,1.5-3.78-.93-5.75-4.24-9-5.5-2.68-1-4.89-.59-7-2-8.54-5.72-13.29-18.78-24-22.5h-7.5c-2-.82-4-3.7-6-4.5-2.72-1.08-4,1-6.5,0-6.08-2.53-15-4.61-22-6.5H243.5c-1.34-.48-2.16-2.53-3.5-3-4.7-1.64-13.17,3.53-18,2-.82-.26-2.18-1.73-3-2H209c-.84-.27-2.17-1.65-3-2-4.32-1.82-11.72-2.92-16-4H166c-.62.14-2,1.12-3,1-2.32-.29-6.33-2.32-9-3-5.1-1.29-10.58-.9-15-2h-7c-7.53-1.88-15-4.18-22-6-3.14-.81-5.24-.14-8-1C96.72,469.36,93.18,465.89,87,465Z" fill-rule="evenodd"/>
  </g>
  <g id="top_front" class="interactive_group" style="isolation: isolate" fill="transparent">
    <path d="M552.5,319.5H556c1.17,1.71,2.2,1.72,2.5,4.5-2.31,1.73-3.25,4.09-6.5,5v-4C550.37,322.87,551.46,321.22,552.5,319.5Z" fill-rule="evenodd"/>
    <path d="M635,224c1.62.36,2.34.62,3,2,1.51,1.72.77,5.46,1.5,8,1.48,5.15,9.31,24.68-.5,25-1.22-1.7-2.1-1.39-4-2.5l-1-1.5c-4.9-3.11-14.85-4.13-22-2-.42.13-1.8,1.44-2,1.5-3.14,1-10.81-1.82-14.5,0-5.6,2.77-2.55,5.27-5,9.5-1.53,2.64-4.74,4.55-6.5,8l-1.5,5-2.5,2.5c-2.14,5,2.17,9.61-6,10-.51-.4-.14-.18-1-.5v-1c-2.07-3.48,2.27-5.82,3-8-.17-2.17-.33-4.33-.5-6.5a31.13,31.13,0,0,1,6-11c1.33-1.67,7.06-8.23,7.5-9.5.84-2.4-1-5.9,1-7h4c3.66-1.21,6.29-5,10-6,4.78-1.26,11.51,1.48,15.5-.5,2.92-1.45,3.9-4.71,6-7C628.34,229.4,632.07,227,635,224Z" fill-rule="evenodd"/>
    <path d="M666,210c6.86-.13,18.59-1.46,23,1.5,2.66.85,3.28,2.8,5,4.5,0,3.54-1.9,7.09-1,10,.68,2.19,7.22,11.35,9,12.5l5,1c1.55.78,2.73,3.3,4,4.5-1.63,6.13-6,7.29-10.5,10.5-1.68,1.2-3.4,3.78-5.5,4.5h-5c-2,.56-5.07,3.35-8,1.5-2.28-1.44-3.38-9.41-4.5-12.5-1-2.68-1.3-6.78-2.5-10-.31-.84-1.71-2.16-2-3-.17-1.5-.33-3-.5-4.5C669.91,225,666.55,217.05,666,210Z" fill-rule="evenodd"/>
    <path d="M836,12a4.2,4.2,0,0,0,.5,2.5c.71,1.63,2.19,2.15,3,3.5l1.5,4.5c1.56,1.2,4.08.75,5.5,2v1c2.24,2.12,4.82,3.83,7,6,.81.81,1.16,2.25,2,3,4.55,4,9.56,7.4,14.5,11,5.85,4.26,10.4,10.9,15.5,16C895.87,71.87,908,81.92,915.5,95c1.56,2.71,1.52,5.6,3,8.5,2.51,4.9,6.37,7.38,8,13.5H926c-3.71-2.92-7.19-2.49-12.5-4-6.6-1.88-12.85-3.8-20-6-5.11-1.57-12.28-4.3-17.5-6-4.25-1.38-8-.64-12.5-2-10.28-3.14-24-6.07-34.5-9-4.17-1.16-7.2.2-11.5-1-1.94-.54-3.92-2.44-5.5-3-3.61-1.28-6.53.1-10.5-1a60.54,60.54,0,0,1-8-3.5c-3.52-1.62-20.45-.77-25-1.5-4.28-.69-9.63,1-11.5-2a5.41,5.41,0,0,1-.5-3c6.54-3.86,10-10.07,15-15.5,2.35-2.56,5.69-4.41,8-7,1.31-1.47,1.69-3.55,3-5,7.07-7.79,13.92-16.2,21.5-23.5V22.5h3L822.5,7c6.38-.19,8.32,1.71,11,5Z" fill-rule="evenodd"/>
  </g>
  <g id="top_top_side" class="interactive_group" style="isolation: isolate" fill="transparent">
    <path d="M903,393c-22.64.67-43.25-9.84-58.5-17.5l-4.5-1c-4.07-1.86-8.5-5-12.5-7-2.93-1.47-5.72-1.54-8.5-3-1.63-.86-3.26-2.8-5-3.5-8.67-3.5-16.12-6.4-24-10.5-1.59-.83-4.83-1.94-6.5-3L781,345c-2.69-1.25-4.5-.85-7.5-2-1.62-.62-3.41-2.72-5-3.5l-4.5-1c-3.45-1.77-6.82-6-11-3-1.17-6.62-16.13-9.28-21-13.5.32-.88.1-.49.5-1,1.19-3.13,3.38-2.3,6.5-3.5,5.83-2.25,12-6.12,17-9.5,10.86-7.29,14.94-19.8,22-31,.88.32.49.1,1,.5,5,1.21,9.16,5,13,7.5,2.53,1.65,5.31,1.94,8,3.5,4.64,2.69,9.68,6.38,14.5,9,6.45,3.5,12.2,6.32,18.5,10,2.73,1.59,5.67,4.51,8.5,6,7.89,4.15,17.76,9.29,24,15,.84.77,1.19,2.19,2,3,2.2,2.2,5.15,4,7,6.5.85,1.16,1,2.5,2,3.5,5,5.11,11.34,10.17,15,16.5,3.49,6.05,4,12.9,7,19.5C900.44,381.72,902.56,387.37,903,393Z" fill-rule="evenodd"/>
    <path d="M726.5,128c-8.34.29-15.49-2-15.5-10,4.87-3.59,5.61-11.85,8-18,1.3-3.35,10.83-13.73,14-15l7-1c1.62-.5,2.69-2.56,4-3l6,1c2.22-.5,5.36-3.35,9.5-2,.73.24,1.91,1.77,2.5,2,3.62,1.42,8.07-1,10-1.5.51-.13,18.68.15,20,.5,3,.81,6.33,3.13,9.5,4,4,1.09,6.89-.29,10.5,1,1.58.57,3.55,2.46,5.5,3,4.31,1.19,7.33-.17,11.5,1,3.88,1.09,9.27,2.82,13.5,4,3.27.91,5.23.07,8.5,1,5.59,1.58,11.92,3.45,17.5,5,3,.83,4.74.1,7.5,1,9.78,3.19,20.91,7,30.5,10,2.7.83,4.94,1.43,7,2H918c.79.28,1.71,1.73,2.5,2H925c2.77,1,4.93,4.33,8,5.5,6,2.3,11.66,2.7,18,5,11.88,4.3,25.75,9,38,12.5h5c2,.5,6,1.51,8,2h10c7.19,1.76,18.51-.83,26,1,6.8,1.66,18.36.94,26,1.5,1,1.6,3.35,2.66,4,4.5,1.16,3.27-.81,7.73.5,10.5A175.08,175.08,0,0,1,1079,188v5c1.54,6.05,3.42,13.27,5,19l1.5,9c3.88,10.8,5.33,22.21,8.5,34,1.23,4.58,4.28,9.39,4.5,14a6.56,6.56,0,0,1-4,1c-3.56-2.52-9.5-1.36-13.5-3.5s-10.9-6-15-7.5l-6.5-1c-1.86-.78-3-3.21-5-4l-6-1-1.5-2-5-1.5c-3-1.76-7.51-4.78-10.5-7l-6-6c-1.88-1.24-4.12-1.27-6-2.5-1.26-.82-2.71-2.75-4-3.5-1.88-1.09-3.59-.94-5.5-2-9.85-5.46-19.64-12.34-29.5-18-3.41-2-7-2.24-10.5-4-5.36-2.7-11.14-6.32-16.5-9l-4.5-1c-2.56-1.17-5-3.76-7.5-5l-4.5-1c-1.32-.65-3.18-2.35-4.5-3l-4.5-1c-12.23-6-26.09-11.93-38.5-18-5.54-2.71-12-3.17-17.5-6-8.59-4.42-19.09-8.53-28-12.5-3.81-1.7-7.3-1.69-11-3.5-3.36-1.65-7.14-4.35-10.5-6-5.48-2.68-11.3-3-17-5.5-.8-.35-1.69-1.69-2.5-2l-4-.5A269.68,269.68,0,0,0,757,117c-10.57-2.91-28.07,4.5-30,9.5C726.62,127,726.7,127,726.5,128Z" fill-rule="evenodd"/>
  </g>
  <g id="top_side" class="interactive_group" style="isolation: isolate" fill="transparent">
    <path d="M1109,341c-6.48.39-15.58,5.11-21,7.5-14.27,6.29-30,9.92-44,16l-5.5,1c-10.86,5-24.35,7.27-35.5,12-3.57,1.52-7.44.72-11,2-14.42,5.17-31.34,7.56-47,11.5-6.66,1.68-14.08,1.56-20,3H903c-.15-9.23-4.5-17.3-7.5-24-1.86-4.14-2-7.79-4-11.5-3.86-7.14-10.72-12.23-16-18-2.9-3.17-4.78-7.17-8-10-3.66-3.22-9.3-4.44-13.5-7-2.91-1.77-4.64-6-7.5-8-1.77-1.26-3.32-.9-5.5-2-2.77-1.4-5.74-4.46-8.5-6-6.32-3.52-12.13-6.34-18.5-10-5.93-3.41-12.25-8.05-18.5-11L791,286l-2-2.5c-2.37-2.31-5.74-4.69-10-5-2.1,2.9-4.75,5.6-6.5,9-.74,1.45-.17,3.5-.5,4l-1.5.5c-1.66,1.75-3.44,3.74-5,5.5-1.31,1.47-1.68,3.56-3,5-6.42,7-16.79,12.48-26.5,16-7.86,2.85-14.9-1.85-24,.5-7.69,2-19,.91-27,3h-7c-9.73,2.53-18.7,4.78-27,8.5-3.36,1.5-6.49,1.34-9.5,3s-5.7,5-8.5,7c-11.76,8.55-21,19.26-30.5,30-3,3.42-4.92,7.64-8,11-2.92,3.19-6.75,5.1-10,8-1.54,1.37-2.48,3.61-4,5-3.59,3.28-8,5.11-12,8-1.81,1.3-3.6,3.86-5.5,5-3.77,2.25-7.37,3.14-11,5.5-4.6,3-9.34,5.88-14,9-1.21.81-2.63,2.94-4,3.5-1.57.64-3-.85-4-.5-2.44.87-2,3.63-6,4v23c-.62,2.6-2.18,9-1,13,.9,3.06,3.28,7.17,4.5,10,.17,2,.33,4,.5,6a81.12,81.12,0,0,0,3,8c.33,2.33.67,4.67,1,7,4.42,12.67,10.24,25.36,15.5,37,2,4.52,1.61,9.34,3.5,14,1,2.58,4.14,4.65,5.5,7,2.21,3.82,2.62,8.22,5,12,1.12,1.78,3.65,2.94,4.5,5,.17,1.17.33,2.33.5,3.5,2.21,4.41,6.27,5.78,6.5,12.5-18.55-.06-36.78,2-55,2H481c-2.84.69-8.1.06-12,1-8.12,2-22.06,3.36-32,1.5-1.41-3.12-5.14-5.63-6-8V578c-.82-2.32-3.66-5.4-5-7.5-1.88-3-2.17-6.58-4-9.5l-3.5-3.5-1.5-5c-1.11-1.71-3.44-3.26-4.5-5-.17-1.17-.33-2.33-.5-3.5-.43-1.15-2-2.09-2.5-3-1.09-1.89-1-3.58-2-5.5-2.09-3.85-5.73-7.46-8-11-1.09-1.69-.89-3.93-2-5.5l-4-3.5c-.33-1.5-.67-3-1-4.5-1.46-2.34-4.39-4.3-6-6.5-1.48-2-2.28-4.25-4-6-1.13-1.15-2.93-1.81-4-3-.7-.78-.67-2.38-1.5-3l-3-.5v-.5c-1-1.17-5.12-5.76-5.5-6.5-.33-2.33-.67-4.67-1-7-1.15-3.11-4.45-5.21-5.5-8-1.54-4.1-1.34-7.56-3.5-11l-4-4c-2.89-4-4.74-8.84-8-12.5-1.68-1.88-4.33-3.11-6-5s-3.79-6.44-5-8.5c-1.63-2.77-3-10.92-1-14,1.3-3.93,4.28-3.16,7-5.5,3.79-3.26,5.57-8.29,12.5-8.5.51.4.14.18,1,.5.89,3,3.89,3.2,5,5.5,1.42,3,.44,5.61,2,8,2.43,3.74,7,5.57,9.5,9,1.73,2.34,2.58,4.9,5.5,6,4.2,1.59,10.4.14,12.5-3,.33-1.17.67-2.33,1-3.5l5-4.5c1.2-1.92,3-8.45,3-11.5-2.34-1.62-6.12-7-3-9.5,3.72-2.9,19.08-4.82,24-2.5-1.09,6.32,6.88,15.25,10,19.5,1.45,2,4.39,6.06,7.5,4.5,4.78-.91,8.44-5.55,10-9.5V393c.23-2.13,1.54-3.43,2-5,1.12-3.86-.37-7.1,1-11,1.3-3.72,5.93-7,11.5-7l.5.5c.16,6.41,10.18,18.87,14.5,21,3.2,1.57,8.91,1.75,12.5,1,1.41-2.15,3.28-4.09,4-7,1.3-5.24-2-6.84-3-9.5a56.12,56.12,0,0,1-2-28c5.26-1.3,13.42-3.27,20-1,1.63.56,3.27,2.51,5,3,3.93,1.12,5.92-2.32,8-1.5,5.58,2.1,3,6.27,5.5,10,1.84,2.7,4.83,4.63,7,7,1.32,1.44,1.7,3.53,3,5,3.85,4.35,8.46,8.3,12.5,12.5,7.89.07,8.32-4.6,12-8.5,0-4.76.29-10.53-.5-14.5-4.53-2.17-7-5.46-10.5-8.5.49-6.85,1.43-17.63,2-24.5a5.31,5.31,0,0,0,3-.5c2.52-.93,2.55-3.5,4.5-4.5H562l5-4.5c2.23-3.28,1.75-6.12,7-6.5.51.4.14.18,1,.5,2.35,4,3.75,9.11,6.5,13,3.14,4.44,7.74,7.66,11.5,11.5,1.51-.29,6.56-.55,8-1.5,4.23-1.43,10.4-16.3,7.5-24.5-.45-1.27-2.44-2.73-3-4-1.54-3.48-.65-7.32-2-11-1.75-4.77-4-10-6-15,2.3-.36,11.82-8.23,13.5-10,.89-.94,1.86-2.93,3-3.5,4.31-2.18,12.73-1,18-2.5,3.87-1.07,5.09-3.76,10-4,1.79,1.85,4.64,3.28,5.5,6,1,3.19-1.64,6.29,0,9,1.07,3.29,4,4.23,6,6.5,1.1,1.25,1.08,3,2,4.5,4,6.32,11.16,15,21.5,15l4.5-4.5c.56-1.56-.18-3.41.5-4.5.32.88.1.49.5,1,.41-4.05,2.64-6.83,3.5-10,1.34-4.9-5.25-17.67-6-23.5h1c2.29,1.51,6.79-.05,8.5-.5H695l2.5-2.5c5.08-3.65,11.48-5.81,13.5-12.5h-.5c-1.57-4.45-4.86-3.18-8.5-5.5-1.75-1.12-2.16-3.43-3.5-5-6-6.95-5.69-8.77-4.5-19.5,5.22.11,10.76,2.15,14,2.5,10.07,1.1,19.89-3.34,27.5-5,1.83-3.17,3.85-6.16,4-11-5-4.61-8.64-11.82-15-15-5.43-2.72-16.94-1.83-19-7.5-2-3.24,2.71-8.44,3.5-11-.17-1.83-.33-3.67-.5-5.5,1.7-1.07,2.34-1.53,5.5-1.5,7.37,5.29,30.92,4.22,39,1,.94-1.49,3-3.83,3.5-5.5,1-3.18-1.81-5.18-2.5-7-1.56-4.1-8.51-13.2-12-14.5-4.8-1.79-14.77-2.25-15.5-7.5,1.5-1.21.92-2.27,2-4,1.28-2,5.27-3.65,7-5.5,33.36-.88,48.8,9.63,71.5,18.5,3.81,1.49,7.28,1.33,11,3,5.18,2.32,10.59,5.55,15.5,8l4.5,1c5.46,2.45,12.22,5.28,17.5,8,4.09,2.11,8.06,2.26,12.5,4,2.3.9,4.64,3.1,7,4,7.77,3,14.58,4.63,22,8,1.32.6,3.19,2.35,4.5,3,2.87,1.43,6,1.31,8.5,3,2,1.37,3.53,4.63,6,5.5l8,.5c4.19,1.83,9.37,4.94,13.5,7l4.5,1c2.51,1.15,5,3.74,7.5,5l4.5,1c5.42,2.47,11.17,6.31,16.5,9,3.49,1.76,7.08,2,10.5,4,13,7.45,26.5,15.37,39,23.5l8,3.5c3.54,2.19,7.65,5.14,11.5,7l4.5,1c1.83,1.1,3,3.47,5,4.5,2.84,1.47,6,.95,9,2.5,2.88,1.46,5.49,4.72,9,6l6,.5c2.7,1,6.49,4.87,10,6h6.5c.84.27,6.35,2.81,7.5,3.5,5.55,3.32,6,11.26,8,18.5,1.38,5.05,3.61,10.81,5,16,1.79,6.68,1.27,12.27,3,19,.82,3.18,2.65,5.48,3,9-2.53,2.46-4.46,5.56-7,8Z" fill-rule="evenodd"/>
  </g>
  <g id="side" class="interactive_group" style="isolation: isolate" fill="transparent">
    <path d="M430,592H390.5a36.1,36.1,0,0,0-9-1c-8.59.07-21,2.21-29.5,0H334.5c-8.21-2.16-20.12-.81-28.5-3H286.5c-3-.87-8-3.29-13.5-2-2.33.55-8.31,2.19-12,1-.82-.27-2.18-1.73-3-2-1.74-.56-4.83-.69-6-1h-8c-1.63-.53-3.28-2.49-5-3h-4.5c-3.29-.89-8.21-2.13-11.5-3h-8.5c-1-.36-2.09-2-3-2.5l-6-.5c-1.58-.55-3.56-2.47-5.5-3H185c-.82-.27-2.18-1.74-3-2h-5.5c-2.72-.73-6.11-1.07-9.5-2-11.81-3.25-26.18-6.62-38-10H119c-2.17-.56-4.17-2.41-6-3H98c-3.33-1.11-6.39-5-10-6H71c-3.41-.87-8.14-2.11-12-3.5-4.79-1.73-8.08-6.21-12-7.5H38c-2.47-.67-12.18-8.14-12.5-11-.62-.78-.32-.26,0-1,.81-2.49,2.79-3.11,4-5a129.16,129.16,0,0,0,6-11.5c2.34-4.66,3.17-10.13,6-14.5,8.78-13.56,22.22-30.84,38.5-36.5,3.59-1.25,9.58-.55,14-.5v.5a14.67,14.67,0,0,0-5.5,5.5c2.66.8,4.31,3.09,6.5,4l9,1.5c2.86,1.08,5.78,3.87,8.5,5,4,1.66,8.21.4,12.5,1.5,5.06,1.3,11.54,2.85,16,4,3.82,1,9.63-1.39,12.5-.5L155,481c4.88,1.6,9.5-.48,14,1,.82.27,2.18,1.74,3,2,3.61,1.16,6.15-1.78,9-1,.81.22,2.2,1.74,3,2h8c1.36.47,2.64,2.53,4,3h14c1.21.3,2.89,1.56,5,1,1.73-.46,2.2-1.4,5-1.5,1.12,1.47,1.49,2.26,4,2.5,3.17-3.68,5,.17,10-1,9.32-2.18,13.5,6.29,24,4.5,1.83-.31,3.22,1.22,5,1.5s3.3-1.69,6-1,4.78,2.67,7,3.5c2.77,1,5.08-1.26,8,0,2.19.95,4.93,3.79,7,5l4,1c2.44,1.44,3.54,4.11,5.5,6,1.8,1.74,4.45,2.51,6.5,4s3.53,4.27,5.5,6c2.79,2.46,14.8,8.65,18.5,10,3,1.11,6.65.1,9-.5h8a21.45,21.45,0,0,0,9.5-5.5c11.38-12.59,2.57-36.31.5-51,1.54-1.52,1.34-2.36,4.5-2.5.51.4.14.18,1,.5a110.89,110.89,0,0,0,12,20c3.1,4.23,8.22,7.87,11,12.5,1.49,2.49,1.44,5.53,3,8,2,3.1,5.59,5.75,8,8.5,1.1,1.25,1.08,3,2,4.5,2.26,3.6,5.83,7.25,8,11a101,101,0,0,1,6.5,14c.33,1.67.67,3.33,1,5,3.24,5.66,6.73,11.78,9.5,18,1.08,2.43.51,4.44,1.5,7C427.55,583,429.9,585.64,430,592Z" fill-rule="evenodd"/>
    <path d="M94,457.5h1v.5C94.12,457.68,94.51,457.9,94,457.5Z" fill-rule="evenodd"/>
    <path d="M1133,377c-2.78.52-5.09,1.89-7-.5-2-2.56-4-13.86-4-19a5.79,5.79,0,0,0-3.5-1c-2-1.15-18.42,5.68-21,7-3.31,1.69-7.36,1.56-11,3-1.56.62-3.43,2.4-5,3l-6.5,1c-9.51,4.37-20.16,6.13-30.5,10-2.91,1.09-7.09,3.55-10,4.5h-6c-1.34.4-2.87,2-4,2.5-4.77,2.11-9.8,1.87-15,3.5-9,2.8-19.47,7.19-28.5,10-6,1.87-11.38,2-17.5,4-4.36,1.43-10.27,4.4-14.5,6-2.42.92-4,.23-6.5,1-6.2,1.93-13.39,5-19.5,7-3.9,1.27-6.33.79-10.5,2s-8.42,3.82-12.5,5h-3.5c-4.66,1.35-10.83,3.71-15.5,5h-8.5c-4,1.2-5.52,5.76-9.5,7h-3.5c-3.42,1-8.07,3-11.5,4s-5.59-.1-8.5,1c-.8.3-1.7,1.72-2.5,2h-3.5c-1.52.43-5,1.59-6.5,2h-5.5c-5.58,1.52-13.24,3.53-18.5,5h-4.5c-3.1.84-5.58,2-10,2h-10c-10.19,2.7-24.39,8.24-36.5,5h-7.5c-2.09-.73-4.13-3.31-6.5-4H710.5v-.5c-2-1-5.31-2.49-7-4-7.35-6.59-7.5-19.44-7.5-33.5V404c.27-.82,1.73-2.18,2-3V390.5c1.07-4.28,2.25-12.7,1.5-17.5l-1.5-.5a4.29,4.29,0,0,0-2.5-.5c-5.59,5.91-12,9.91-19,14.5-3.73,2.45-6.79,7.44-10.5,10l-3.5,1-9.5,10c-4,4-7.56,7.38-11,12l-6.5,6c-2.1,3.09-2.68,6.09-4.5,9.5-2,3.76-5.8,7.14-7.5,11.5-3.07,7.87-4,17.38-4,28v11c.61,1.89,2.64,4.62,3.5,6.5.33,1.83.67,3.67,1,5.5,1,1.48,3.71,2.71,5,4,6.13,6.12,13.76,12.14,22,16,16.82,7.89,50.43,6.6,69.5,1.5H731l7.5-2H744c6.34-1.71,13.31-3.35,19.5-5H770c.79-.27,1.71-1.73,2.5-2,3.49-1.2,6.09,0,9.5-1,6.49-1.87,14.29-5.17,20.5-7,3.59-1.05,6.13.21,9.5-1,2.48-.89,6.46-3.31,9-4.5,3.45-1.61,6.76-.31,11-1.5,1.93-.54,3.92-2.45,5.5-3H842c1.23-.35,3.27-1.67,4.5-2,4.45-1.21,5.78,1.35,9.5,0,.8-.29,1.7-1.69,2.5-2l3.5-.5,4-4,7.5-1c1.13-.53,2.65-2.09,4-2.5,3.18-1,5.38.11,8.5-1,.79-.28,1.71-1.73,2.5-2H893c2-.73,4-3.08,6.5-4l7-1.5c2.22-1.06,4.78-3.65,7-4.5l4-.5c3.72-1.77,7.6-3.88,11-5,2.78-.91,2.88-3.84,6.5-4.5.85,1.36,1.27,1.25,1.5,3.5-.4.51-.18.14-.5,1-14.2,8.23-28.73,19.5-37,33.5-2.59,4.38-2.68,9.22-5,14-4.63,9.56-10.39,19.76-15,29.5-.33,1.83-.67,3.67-1,5.5-.57,1.13-2.39,2.38-3,3.5-1.39,2.55-1.4,5.53-3,8-3,4.66-8.72,6.24-9.5,13.5a49.85,49.85,0,0,0-11.5,1c-6.51,1.7-16.15-.53-22,1H818a85.7,85.7,0,0,0-17,2H784.5c-12.42,3.26-29.2.79-41.5,4H725.5c-13,3.41-31.26.55-44.5,4H665.5c-4.62,1.21-14.07,1.88-19,2h-11c-3.88,1-11-.3-16,1-7.11,1.86-15.88,2-24.5,2H583.5a41,41,0,0,1-9.5,1.5l-2-2c-.73-1.56-.15-2.72-1-4-1.35-2-4-3.5-5-6-.9-2.29-.39-4.08-1.5-6-1-1.67-3.24-3-4-5-1.49-3.87-1.21-6.79-3-10-.92-1.66-3.12-2.78-4-4.5-.33-1.67-.67-3.33-1-5-.43-.69-2.09-.91-2.5-1.5v-2c-.41-1.09-1.66-2.27-2-3-1.08-2.3.47-3.67-.5-5.5A223.66,223.66,0,0,1,529,483c-.73-3.13-2.31-7.34-3-10-1.66-6.42.53-11.73-1-18-1.38-5.65-2-17.73-1-23.5,1.46-.53,1.17-.91,2.5-1.5a4.29,4.29,0,0,0,2.5.5l2.5-4c3.54-2.5,7.8-.4,8-6.5,1.36-.11,4-.33,5-1a6.56,6.56,0,0,0,2-1v-2c3.69-.54,5-3,7.5-4.5,4.47-2.63,8.69-5.51,13-8,1.7-1,3.55-.83,5-2,1.12-.91,1.4-3.06,2.5-4,2.38-2,5.65-2.91,8-5,.83-.74,1.18-2.24,2-3,3.45-3.17,7.87-5.54,11-9,2.74-3,4.26-7,7-10,.42-.46,1.59-.54,2-1,1.31-1.47,1.68-3.56,3-5,.75-.82,2.26-1.17,3-2,1.31-1.47,1.68-3.56,3-5,1.72-1.89,4.19-3.19,6-5,2.15-2.14,3.77-5,6-7,1.45-1.33,3.49-1.71,5-3,3.73-3.2,7.88-7.9,12.5-10s8.91-2.13,14-4c4.34-1.6,9.51-5.1,14.5-6,.68-.12,3,.86,4.5.5,10.57-2.5,25.38-1.39,36-4,11.11-2.73,17.15,3.13,23,5.5,10.63,4.3,20,9.07,29.5,14l4.5,1c1.66.76,3.26,2.82,5,3.5l4,.5c2.73,1.2,5.31,3.89,8,5,6.8,2.79,12.42,6,18.5,9l4.5,1c21.27,10.75,43.33,22.43,67,30.5,19.56,6.67,48.7,6,69,1,5.72-1.4,10.37-.5,16-2,32.16-8.56,65.5-16.09,94-28.5l6-1c12.36-4.58,26-9.78,38-15,3.53-1.54,7.08-1,10-3,3.5-2.41,2.63-10.86,5.5-12.5a5.41,5.41,0,0,1,3-.5c4.47,7.57,10,15.08,12.5,24.5,1.46,5.4-.65,13.21,1,19C1131.56,373,1132.74,374.13,1133,377Z" fill-rule="evenodd"/>
  </g>
  <g id="logo" class="interactive_group" style="isolation: isolate" fill="transparent">
    <path d="M1119.5,350c.48.71,0,2,.5,3l3,3v11a17.9,17.9,0,0,1,1,5c0,2.69.51,7.92,0,9-2.26,5.42-17.59,7.66-23.5,10.5-9,4.33-19.29,8.85-28.5,13-6,2.72-11.87,3.1-18,5.5-2.33.91-4.68,3.47-7,4.5l-5.5,1c-3.92,1.82-8.54,4.23-12.5,6l-4.5,1c-4,2-9.46,5-13.5,7l-4,.5c-1.7.7-2.9,3.5-4.5,4-1,.32-2.38-1.08-4-.5-1.36.49-3.58,1.25-5.5,2-2.22.87-4.84,3-7,4-11.08,5-22.36,9.19-33,14-3.34,1.51-6.28,1.39-9.5,3-2,1-4.48,3.12-6.5,4l-8,1c-3.59,1.28-7.68,3.55-11,5l-4,.5c-2.33.91-4.68,3.48-7,4.5-3.06,1.35-6,.81-9,2-1.74.69-3.31,2.9-5,3.5h-4c-.82.27-2.18,1.73-3,2h-7c-2,.66-2.93,3.29-4.5,4-2.39,1.09-5.93-.51-8,.5-5.07,2.47-10,6.73-15.5,8.5H838c-1.2.39-2.81,2.06-4,2.5l-6,.5c-2.88,1-7.88,3.19-11,4h-7c-3.68,1.2-8.18,4.13-12,5.5-11,3.94-23.46,5.62-35,8.5-10.56,2.64-21.51,3.41-32,6H721c-21.69,5.3-56.72,6.46-74-3.5-10.06-5.8-23.06-16.38-27-28v-7c0-9.18.29-17.68,2-24.5v-5c1.77-5.41,7.54-11.81,9.5-16.5v-4c1.2-2.55,7.88-6.59,10-9,1.45-1.64,1.55-4.36,3-6,2.61-3,6.21-5.21,9-8s5-6.4,8-9,7.11-3.82,10.5-6c1.87-1.2,2.89-3.54,4.5-5,2-1.79,5-2.24,7-4,.45-.39.55-1.61,1-2,1.69-1.46,4.42-.79,6.5-2,3-1.76,3.2-3.89,8.5-4a7.69,7.69,0,0,0,2.5,3c.54-.38.47-.3,1.5-.5v.5h-1c-2.12,3.24-3.44,9.17-4.5,13.5v9c-4.23,13.53-3,40.21,4.5,48.5A55,55,0,0,0,711,455l6,.5c1.74.65,3.32,2.93,5,3.5h20a43.81,43.81,0,0,0,17,0h9c2.21-.64,5.43-2.36,8-3h7c3.19-.8,7.31-1,11-2,8.78-2.43,19-4.74,28-7,5.31-1.33,10.15-.27,15-2,.8-.29,1.7-1.7,2.5-2,2.91-1.09,5.18-.07,8.5-1,4-1.12,9.1-3.24,13-4.5l5-.5c1-.38,2.08-2.05,3-2.5,1.92-.95,4.67.34,7-.5,1.63-.59,3.15-2.79,5-3.5,6.85-2.62,13.86-2.37,21-5,2.67-1,6.17-3,9-4,4.29-1.53,7.78-1.12,12-2.5,12.46-4.07,27.18-8.42,39-13.5l5-.5c4.91-1.36,10.72-2.54,16-4.5,14-5.19,30.54-9.17,44-15l8-.5c1.92-.63,5.1-2.66,7-3.5,5-2.21,9.77-2.06,15-4,14.28-5.3,30.14-10.61,44-16,4.47-1.74,16.43-3.69,18-7.5C1119.57,353.16,1119.53,351.55,1119.5,350Z" fill-rule="evenodd"/>
  </g>
  <g id="soul" class="interactive_group" style="isolation: isolate" fill="transparent">
    <path d="M903,680c-.17-2.83-.33-5.67-.5-8.5L901,670c-.88.32-.49.1-1,.5-4.23,1.83-2.56,8.86-7,10.5-3,2.18-25.83,1.44-30.5.5-.9-2-1-4.73-1-8L860,672c-.88.32-.49.1-1,.5-4.17,1.59-2.85,7.46-7,9-1.75,1.12-6.35.46-9,.5-3.92,0-16.75,2.9-20.5.5-3.11-1.12-4.09-4.32-7.5-5.5v.5c-1.14,1-1.07,2.27-1,4.5a88.59,88.59,0,0,0-12,2c-7.4,1.78-19.31-.7-25.5-1-1-1.66-2.38-4.45-4.5-5a5.31,5.31,0,0,1-.5,3c-.59,1.92-1.11,2.32-3.5,2.5-2.29,1.44-6.91-.23-10,.5-6.5,1.54-16.46.58-23,0-.17-1.67-.33-3.33-.5-5a4.2,4.2,0,0,0-2.5.5c-2.69.92-3,3.22-5,4.5-1.69,1.07-6.21,1.57-8,2H688.5c-1.1-.31-2.4-1.7-3.5-2-4.49-1.23-6.35,2-11,2H645c-1.9-.36-3.4-2.66-6-2-.8.2-2.21,1.75-3,2H625.5c-8.58,0-19.56.79-26.5-1-3-.77-6.24.58-8,1H557.5c-1.31-.34-4-1.79-6.5-1-.82.25-2.18,1.74-3,2H513.5c-1.66-.55-2.31-2.71-5.5-2-11.52,2.57-30.36,3-42,0-3-.77-6.24.58-8,1H432.5c-2.77-.79-6.59-5.16-10.5-4-1.71.51-3,2.48-5,3-3.19.83-7.18-.53-9-1H394c-3.16-1-4.71-3.61-9-4-3.57,4.93-27.81,3.85-30-1v-6c-1.09-1.31-1.91-2.76-3-4-.88.32-.49.1-1,.5-4.53,1.67-1.43,5.46-3.5,9.5-.38.74-1.92,1.36-2.5,2-6.54.08-17.27-.31-22.5-2-1.1-.36-2.39-1.67-3.5-2-2.67-.78-5.48.62-7,1H293.5c-12.84-3.45-29-1.59-41.5-5h-7.5c-15.75-4.38-34.91-4.71-50.5-9h-5.5c-23.59-7-49.63-11.83-72.5-19l-5-.5c-8.81-3.78-19.66-6.12-29-9-5.62-1.73-11.77-1.72-17-4-11.9-5.2-24.3-9.75-35-16C17.22,608,10.13,594.4,6,578c-2.07-8.24,2.53-21.66,4-27,1.63-5.91.67-11.19,4-15,1.78-2,5.5-7.11,9-5.5,2.69.67,3.79,2.75,6,3.5h5c2.46.82,6.54,3.18,9,4h4c4.38,1.49,7.16,5.75,12,7.5,3.86,1.4,8.59,2.62,12,3.5H88c3.76,1,6.64,4.84,10,6h15c1.83.6,3.82,2.44,6,3h10c3.31.88,8.77,3.06,12,4,4.63,1.35,9.6.48,14,2,.83.29,2.17,1.73,3,2h4c6.72,1.79,16.49,3.9,23,6h15c2.18.56,4.16,2.39,6,3l6,.5c.87.42,1.89,2.13,3,2.5h8c3.55.89,8.46,2.09,12,3l6,.5c.87.42,1.89,2.13,3,2.5h8c1.3.32,4,.35,6,1,.82.27,2.18,1.73,3,2,5.43,1.75,13.18-1.08,19-1,3.54,0,4.74,1.35,7,2,5.53,1.59,15.51-.36,21,1h13c2.85.7,8.11,0,12,1,4.84,1.19,13-.46,19,1,4.76,1.17,12.24,1,18.5,1,6,0,11.88-2.62,18.5-1,9.76,2.39,24.51,1,36,1,12.57,0,32.33,2.12,43-2.5,1.1-.48,8.45,1.13,11,.5l2-1h25.5c7.74,0,17.34.53,23.5-1h13c9,0,16.92-.37,24-2l7.5,1c6.61.15,10.39-1,17-1H606c17.77-4.4,42.17-.57,60-5,5.35-1.33,12.75,0,17-1h11.5c5.17-.12,15.67-.8,20.5-2h9a53,53,0,0,1,11.5-1H743c12.56-3.11,29.3-.85,42-4,5.65-1.4,13.46.13,18-1,3.89-1,9.15-.29,12-1,5-1.25,12,0,16-1h23c1.17.28,3,1.62,5,1,.82-.25,2.19-1.74,3-2h19c1.61-.48,2.68-2.46,4-3h6.5a24.4,24.4,0,0,0,6.5-1h13c3.16-.78,10.4-2.12,15-1,2.73.66,8.86,2,13,1,4.54-1.12,12.35.4,18-1,5.13-1.27,13.74.55,20-1,8.61-2.13,20.66-.93,29-3h14c.58.13,2.09,1.18,3,1,1.7-.33,4-2.48,6-3h7.5a35.29,35.29,0,0,0,8.5-1h14c6.08-1.51,14.85-1.47,21-3h7c.83-.27,2.17-1.72,3-2,3.19-1.09,5.56-.12,9-1,8.8-2.24,18-1.73,27-4,3.43-.86,9.35-1.89,12.5-3.5,2.89-1.47,3.12-5,7-5.5,2.47,4.5,7.06,7.56,9,12,1.55,3.53-.68,8.86.5,13,4,14,4,34.47,4,57,0,9.68,3,28.28-2.5,34.5-7.16,8.13-17.31,7.33-29.5,10.5-9,2.34-20.53,3.66-30,6h-14c-12.13,3-38.47,6.36-53.5,3.5-2.08-3.37-1.18-4.49-2.5-8.5a8.45,8.45,0,0,0-3-1c-3,3.2-2.54,3.66-3.5,9-6.07,3.87-23.3,4.41-33,2.5-.49-.87-1.68-1.62-2-2.5-1.26-3.42.92-5.2-3-6-1.07,2-1,4.12-2,6-.79,1.54-3.28,2.76-4.5,4-10.14,0-19.76,2.36-29.5.5-.9-2.09-1-6.34-1.5-9a5.25,5.25,0,0,0-3-1c-1.3,2.89-2.83,8.89-6,10C931.72,682.3,909.74,680.6,903,680Z" fill-rule="evenodd"/>
  </g>
  <g id="heel" class="interactive_group" style="isolation: isolate" fill="transparent">
    <path d="M1132.5,375c1.79.22,2.15.42,3,1.5,2.92,4-2,10.27-.5,16.5,3.35,13.8.5,34,4,48,3.07,12.29,3,25.61,6,38,1.15,4.77.11,11.33,1,15,1.41,5.82-1,10.91-1,16,0,5.66-.56,11.71-1,16,.17,3.67.33,7.33.5,11a17.59,17.59,0,0,1-3,4.5c-4.53,4.51-13,3.65-20.5,5.5-3.55.88-8.45,2.14-12,3h-8c-3.07.75-7.52.82-11,2-.82.28-2.17,1.74-3,2-5.27,1.67-11.45-.35-17,1-12.61,3.07-30.07.87-43,4h-9c-12.33,3-28.46,1-41,4-6.27,1.52-14.87-.24-20,1-5.67,1.37-13.46-.1-18,1-9.13,2.21-16.66-3.27-26-1-4.22,1-12.78,1-17,2H885c-1.32.53-2.38,2.53-4,3H870c-1.35.42-1.78,1.28-4,1.5-.85-1.36-1.89-1.9-2.5-3.5h.5c.76-1.94,2.59-2,3.5-3.5,3.08-5.14,4.54-10.61,7.5-16,.61-1.12,2.43-2.37,3-3.5,1.69-3.35,1.19-6.44,2.5-10,.43-1.17,1.9-2.08,2.5-3,2.76-4.27,3.69-8.79,6-13.5.65-1.31,2.38-3.18,3-4.5l1.5-9c.91-2.4,3.27-3.62,4.5-5.5,2.11-3.24,2.82-6.5,5-9.5l7-6.5c4.27-5.84,8.14-8.74,14-13l6-6c10.82-6,23.37-11,35-16l8-.5c1.94-.7,3.32-3.42,5-4.5,3.13-2,6.34-2.5,10-4,1.51-.62,3-2.4,4.5-3,4.7-1.85,8.44-3.12,12.5-5l5.5-1c6.55-3.23,14-7.34,21-10,5.36-2,9.94-2.66,15-5,4.34-2,9.3-5.22,14-7,5.41-2.05,10.07-2.36,15.5-4.5,1.89-.74,3.51-3.16,5.5-4,3.16-1.34,6.07-.77,9.5-2,2.72-1,6.45-3.37,9-4.5,3.63-1.61,7.12-1.31,10.5-3C1116.3,386.6,1128.36,379.5,1132.5,375Z" fill-rule="evenodd"/>
  </g>
  <g id="Layer_5_Image" data-name="Layer 5 Image">
    <image id="Layer_5_Image-2" data-name="Layer 5 Image" width="2333" height="1406" transform="scale(0.5)" xlink:href="jordan1.png"/>
  </g>
</svg>
